<?xml version="1.0" standalone="no"?>
<!DOCTYPE svg PUBLIC "-//W3C//DTD SVG 20010904//EN"
 "http://www.w3.org/TR/2001/REC-SVG-20010904/DTD/svg10.dtd">
<svg version="1.0" xmlns="http://www.w3.org/2000/svg"
 width="520.000000pt" height="520.000000pt" viewBox="0 0 520.000000 520.000000"
 preserveAspectRatio="xMidYMid meet">
<metadata>
Created by potrace 1.11, written by Peter Selinger 2001-2013
</metadata>
<g transform="translate(0.000000,520.000000) scale(0.100000,-0.100000)"
fill="#000000" stroke="none">
<path d="M805 5188 c-254 -33 -461 -221 -520 -472 -13 -52 -15 -358 -15 -2112
0 -1439 3 -2068 11 -2110 22 -117 96 -246 194 -336 173 -159 450 -202 661
-104 44 20 227 125 274 157 8 5 23 12 33 15 9 4 17 10 17 15 0 5 5 9 11 9 6 0
38 16 72 36 34 20 78 46 97 57 19 11 49 28 65 38 17 10 53 30 80 45 28 15 52
29 55 33 3 3 21 14 40 24 19 9 60 32 91 50 30 17 90 52 132 76 42 25 73 49 70
54 -3 6 -1 7 5 3 10 -6 98 36 112 54 3 4 13 9 22 13 10 3 63 33 118 67 55 33
103 60 105 60 3 0 33 17 67 38 35 21 88 52 118 69 72 40 177 101 215 124 17
10 36 22 44 26 8 4 69 38 135 77 67 38 130 74 141 80 11 6 35 21 53 34 17 13
32 20 32 17 0 -3 12 2 28 13 15 10 47 31 72 44 25 14 68 38 95 54 28 15 52 30
55 33 3 3 34 21 70 40 36 19 72 39 80 46 8 6 90 54 182 106 91 52 164 98 160
104 -3 5 -2 7 3 3 7 -7 83 26 95 41 3 3 30 19 60 35 30 16 62 35 71 42 8 8 19
14 22 14 4 0 24 10 45 23 20 13 64 38 97 56 213 116 297 184 364 295 103 171
119 377 45 561 -57 139 -156 242 -319 331 -105 56 -108 58 -135 75 -68 43
-326 189 -334 188 -5 0 -12 3 -15 8 -6 9 -124 80 -201 121 -24 13 -56 32 -70
42 -14 9 -47 29 -75 44 -27 14 -57 31 -65 36 -97 62 -313 179 -322 174 -6 -4
-8 -3 -5 3 3 5 -94 67 -216 137 -122 70 -229 132 -237 137 -36 21 -166 96
-180 102 -8 4 -24 13 -35 20 -54 33 -142 84 -155 90 -8 4 -28 15 -45 26 -44
27 -104 61 -150 85 -22 12 -42 24 -45 27 -9 10 -152 89 -161 89 -5 0 -9 4 -9
8 0 5 -23 19 -50 32 -28 13 -56 30 -62 37 -6 7 -19 13 -28 13 -10 0 -20 3 -22
8 -3 7 -76 52 -178 110 -19 10 -75 43 -125 72 -49 29 -108 62 -130 75 -22 12
-105 60 -185 107 -240 141 -257 147 -430 161 -19 2 -62 -1 -95 -5z m813 -1747
c29 -17 55 -31 57 -31 2 0 24 -14 49 -31 25 -16 54 -31 65 -32 11 0 18 -4 16
-7 -2 -4 13 -16 33 -27 43 -23 40 -21 312 -178 113 -65 222 -128 242 -141 21
-13 40 -24 43 -24 3 0 24 -11 46 -26 22 -14 56 -34 75 -45 19 -10 51 -29 72
-40 20 -12 78 -45 127 -74 50 -29 106 -62 126 -73 19 -11 72 -41 117 -67 l82
-48 -27 -17 c-38 -22 -221 -128 -287 -165 -30 -16 -79 -45 -110 -62 -31 -18
-81 -47 -111 -64 -30 -17 -55 -35 -55 -40 0 -5 -4 -8 -9 -6 -4 1 -79 -38 -165
-88 -86 -49 -186 -106 -221 -125 -35 -19 -70 -41 -77 -48 -6 -6 -17 -12 -24
-12 -7 0 -14 -3 -16 -7 -1 -5 -32 -24 -68 -42 -36 -19 -116 -66 -179 -103 -62
-37 -115 -68 -117 -68 -2 0 -26 -14 -54 -30 -53 -31 -76 -38 -64 -19 5 9 9
907 4 934 -1 6 -2 15 -1 20 1 6 2 200 2 433 l1 422 31 -19 c18 -10 56 -33 85
-50z"/>
</g>
</svg>
