<svg xmlns="http://www.w3.org/2000/svg" xmlns:xlink="http://www.w3.org/1999/xlink" viewBox="0 0 593.81 583.28"><defs><style>.cls-1,.cls-2,.cls-3{opacity:0.88;}.cls-1{fill:url(#linear-gradient);}.cls-2{fill:url(#linear-gradient-2);}.cls-3{fill:url(#linear-gradient-3);}.cls-4{font-size:275px;font-family:Roboto-Black, Roboto;font-weight:800;}.cls-5{fill:url(#linear-gradient-4);}.cls-6{fill:url(#linear-gradient-7);}</style><linearGradient id="linear-gradient" x1="432.31" y1="302.23" x2="432.31" y2="94.99" gradientUnits="userSpaceOnUse"><stop offset="0" stop-color="#330867"/><stop offset="0.27" stop-color="#322180"/><stop offset="0.85" stop-color="#3161be"/><stop offset="1" stop-color="#3073d0"/></linearGradient><linearGradient id="linear-gradient-2" x1="500.78" y1="302.23" x2="500.78" y2="174.03" gradientTransform="translate(44.16 552.75) rotate(-60)" xlink:href="#linear-gradient"/><linearGradient id="linear-gradient-3" x1="500.78" y1="223.19" x2="500.78" y2="94.99" gradientTransform="translate(388.16 -354.14) rotate(60)" gradientUnits="userSpaceOnUse"><stop offset="0" stop-color="#3073d0"/><stop offset="1" stop-color="#30cfd0"/></linearGradient><linearGradient id="linear-gradient-4" x1="13.05" y1="192.27" x2="377.74" y2="192.27" gradientUnits="userSpaceOnUse"><stop offset="0" stop-color="#30cfd0"/><stop offset="1" stop-color="#324587"/></linearGradient><linearGradient id="linear-gradient-7" x1="14.77" y1="407.71" x2="510.93" y2="407.71" gradientUnits="userSpaceOnUse"><stop offset="0" stop-color="#316d9c"/><stop offset="0.99" stop-color="#330867"/></linearGradient></defs><g id="Layer_2" data-name="Layer 2"><g id="Layer_1-2" data-name="Layer 1"><rect class="cls-1" x="407.74" y="94.99" width="49.15" height="207.24" rx="24.57"/><rect class="cls-2" x="476.2" y="134.51" width="49.15" height="207.24" rx="24.57" transform="translate(456.61 -314.62) rotate(60)"/><rect class="cls-3" x="476.2" y="55.47" width="49.15" height="207.24" rx="24.57" transform="translate(112.61 513.23) rotate(-60)"/><text class="cls-4" transform="translate(13.45 294.65)">Air</text><path class="cls-5" d="M139.27,258.13H74.68L63.4,294.65H13.05L84.75,99.14h44.31L201.3,294.65H150.68ZM86,221.74h42l-21.08-67.81Z"/><path class="cls-5" d="M213.12,111.9a20.2,20.2,0,0,1,7-15.84q7-6.18,18.13-6.18t18.13,6.18a20.2,20.2,0,0,1,7,15.84,20.22,20.22,0,0,1-7,15.85q-7,6.17-18.13,6.17t-18.13-6.17A20.22,20.22,0,0,1,213.12,111.9Zm48.07,182.75H215.8V149.36h45.39Z"/><path class="cls-5" d="M376.94,190.32,362,189.24q-21.34,0-27.39,13.43v92H289.39V149.36h42.43L333.3,168q11.4-21.34,31.82-21.35a44.23,44.23,0,0,1,12.62,1.61Z"/><text class="cls-4" transform="translate(0 508.76)">Live</text><path class="cls-6" d="M61.9,472.5h82v36.26H14.77V313.25H61.9Z"/><path class="cls-6" d="M161.4,326a20.21,20.21,0,0,1,7-15.84q7-6.18,18.13-6.18t18.13,6.18a21.47,21.47,0,0,1,0,31.69q-7,6.18-18.13,6.18t-18.13-6.18A20.22,20.22,0,0,1,161.4,326Zm48.07,182.76H164.09V363.47h45.38Z"/><path class="cls-6" d="M295.28,454.91l23-91.44h47.67l-47.4,145.29h-46.2l-47.4-145.29h47.81Z"/><path class="cls-6" d="M449.7,511.44q-33.45,0-54.12-19.94T374.9,439.6v-3.76q0-22.27,8.26-39.34a60.52,60.52,0,0,1,24.1-26.39q15.84-9.33,37.6-9.33,30.61,0,48.34,19t17.73,53v17.59H421q2.42,12.21,10.61,19.2t21.21,7q21.48,0,33.57-15L507,485.93q-8.46,11.69-24,18.6A81,81,0,0,1,449.7,511.44Zm-5.11-115.75q-19.87,0-23.63,26.32h45.65v-3.49q.27-10.87-5.5-16.85T444.59,395.69Z"/></g></g></svg>